<svg width="50" height="43" viewBox="0 0 50 43" fill="none" xmlns="http://www.w3.org/2000/svg">
<g filter="url(#filter0_d_23_289)">
<path d="M14.9788 0.359103C15.8729 0.986387 16.0861 2.22445 15.4627 3.11585L10.8694 9.71883C10.5332 10.1975 10.0082 10.5029 9.42584 10.5525C8.84347 10.602 8.26931 10.4039 7.85919 9.9912L4.57826 6.68971C3.81545 5.91386 3.81545 4.6593 4.57826 3.88345C5.34108 3.10759 6.59604 3.11585 7.36705 3.88345L8.99111 5.51768L12.2392 0.846073C12.8626 -0.0535829 14.093 -0.26818 14.9788 0.359103ZM14.9788 13.5651C15.8729 14.1924 16.0861 15.4304 15.4627 16.3218L10.8694 22.9248C10.5332 23.4035 10.0082 23.7089 9.42584 23.7584C8.84347 23.8079 8.26931 23.6099 7.85919 23.1972L4.57826 19.8957C3.80725 19.1198 3.80725 17.8653 4.57826 17.0977C5.34928 16.3301 6.59604 16.3218 7.35885 17.0977L8.98291 18.7319L12.231 14.0603C12.8544 13.1606 14.0848 12.946 14.9706 13.5733L14.9788 13.5651ZM22.3773 5.28658C22.3773 3.82567 23.5502 2.64539 25.0021 2.64539H43.3753C44.8271 2.64539 46 3.82567 46 5.28658C46 6.74749 44.8271 7.92777 43.3753 7.92777H25.0021C23.5502 7.92777 22.3773 6.74749 22.3773 5.28658ZM22.3773 18.4925C22.3773 17.0316 23.5502 15.8513 25.0021 15.8513H43.3753C44.8271 15.8513 46 17.0316 46 18.4925C46 19.9535 44.8271 21.1337 43.3753 21.1337H25.0021C23.5502 21.1337 22.3773 19.9535 22.3773 18.4925ZM17.1278 31.6985C17.1278 30.2376 18.3008 29.0573 19.7526 29.0573H43.3753C44.8271 29.0573 46 30.2376 46 31.6985C46 33.1594 44.8271 34.3397 43.3753 34.3397H19.7526C18.3008 34.3397 17.1278 33.1594 17.1278 31.6985ZM9.25359 28.397C10.1237 28.397 10.9583 28.7449 11.5736 29.364C12.1889 29.9832 12.5345 30.8229 12.5345 31.6985C12.5345 32.5741 12.1889 33.4139 11.5736 34.033C10.9583 34.6522 10.1237 35 9.25359 35C8.38343 35 7.54891 34.6522 6.93362 34.033C6.31833 33.4139 5.97266 32.5741 5.97266 31.6985C5.97266 30.8229 6.31833 29.9832 6.93362 29.364C7.54891 28.7449 8.38343 28.397 9.25359 28.397Z" fill="#455139"/>
</g>
<defs>
<filter id="filter0_d_23_289" x="0" y="0" width="50" height="43" filterUnits="userSpaceOnUse" color-interpolation-filters="sRGB">
<feFlood flood-opacity="0" result="BackgroundImageFix"/>
<feColorMatrix in="SourceAlpha" type="matrix" values="0 0 0 0 0 0 0 0 0 0 0 0 0 0 0 0 0 0 127 0" result="hardAlpha"/>
<feOffset dy="4"/>
<feGaussianBlur stdDeviation="2"/>
<feComposite in2="hardAlpha" operator="out"/>
<feColorMatrix type="matrix" values="0 0 0 0 0 0 0 0 0 0 0 0 0 0 0 0 0 0 0.25 0"/>
<feBlend mode="normal" in2="BackgroundImageFix" result="effect1_dropShadow_23_289"/>
<feBlend mode="normal" in="SourceGraphic" in2="effect1_dropShadow_23_289" result="shape"/>
</filter>
</defs>
</svg>
